Coordinates
version=1
nRows=17
nColumns=40
inDegrees=yes

Units are S.I. units (second, meters, Newtons, ...)
Angles are in degrees.

endheader
time	pelvis_tilt	pelvis_list	pelvis_rotation	pelvis_tx	pelvis_ty	pelvis_tz	hip_flexion_r	hip_adduction_r	hip_rotation_r	knee_angle_r	knee_angle_r_beta	ankle_angle_r	subtalar_angle_r	mtp_angle_r	hip_flexion_l	hip_adduction_l	hip_rotation_l	knee_angle_l	knee_angle_l_beta	ankle_angle_l	subtalar_angle_l	mtp_angle_l	lumbar_extension	lumbar_bending	lumbar_rotation	arm_flex_r	arm_add_r	arm_rot_r	elbow_flex_r	pro_sup_r	wrist_flex_r	wrist_dev_r	arm_flex_l	arm_add_l	arm_rot_l	elbow_flex_l	pro_sup_l	wrist_flex_l	wrist_dev_l
     10.35000000	     -3.77234722	     -7.65913500	      2.68757753	      1.00531517	      0.92980665	      0.50051305	     11.35786153	      6.20043011	    -15.68609834	     13.77927915	     13.77927915	      8.32018278	      1.00786264	     -3.24569687	     32.55099989	    -14.99492780	      4.46847583	     65.19202565	     65.19202565	     10.68923325	    -19.34703061	     19.07042920	    -12.20470559	      7.69741269	      4.25226696	      8.14106244	    -16.21593193	     -1.47666269	     53.16377233	     45.71487747	      0.00000000	      0.00000000	     11.45880710	     -9.11309131	     -0.19438128	     45.35783076	     45.80939952	      0.00000000	      0.00000000
     10.36107143	     -3.82269929	     -7.55355203	      3.08258235	      1.00417838	      0.92983422	      0.50040408	     10.75210014	      6.18078347	    -15.60796989	     13.43357519	     13.43357519	      8.55171762	      0.60334423	     -3.61977920	     33.90631162	    -14.73054678	      4.34591018	     63.11103969	     63.11103969	     11.16180590	    -19.37062896	     19.52871646	    -12.18579628	      7.54518584	      4.04249728	     10.11361084	    -16.69563938	     -1.19695006	     56.71395077	     45.57635212	      0.00000000	      0.00000000	     10.60698748	     -8.81207148	     -0.15684716	     41.49667445	     45.84433630	      0.00000000	      0.00000000
     10.37214286	     -3.82912584	     -7.42207184	      3.45526555	      1.00313414	      0.92988770	      0.50028482	     10.11877427	      6.12417626	    -15.58706358	     13.14069696	     13.14069696	      8.87817233	      0.32574249	     -3.84433079	     34.94131762	    -14.40250265	      4.16511506	     60.68341930	     60.68341930	     11.35916994	    -19.37472763	     19.60818200	    -12.22691133	      7.37020025	      3.87734231	     12.30289635	    -17.11329101	     -1.03825590	     59.68350921	     45.47188743	      0.00000000	      0.00000000	     10.05309802	     -8.55001525	      0.18498578	     37.08918066	     45.85214852	      0.00000000	      0.00000000
     10.38321429	     -3.82562784	     -7.28269330	      3.81727731	      1.00211970	      0.92991476	      0.50005162	      9.49050161	      6.05075387	    -15.55908613	     12.87559898	     12.87559898	      9.22617251	      0.08991083	     -4.00296230	     35.74121821	    -13.96006011	      4.04639764	     57.97818439	     57.97818439	     11.41617579	    -19.35970072	     19.60309438	    -12.28557520	      7.19443813	      3.72670877	     14.53801490	    -17.44410883	     -1.08791379	     62.43302610	     45.38883732	      0.00000000	      0.00000000	      9.47569415	     -8.27470440	      0.52820093	     32.96710116	     45.85642826	      0.00000000	      0.00000000
     10.39428571	     -3.80759667	     -7.07975274	      4.14251128	      1.00116556	      0.92993299	      0.49973758	      8.86385362	      5.89618702	    -15.55102831	     12.66569250	     12.66569250	      9.62332284	     -0.07379255	     -4.08622891	     36.29622000	    -13.36915157	      3.96374846	     55.02433708	     55.02433708	     11.40796131	    -19.29753127	     19.70325380	    -12.42058082	      6.92795196	      3.27708045	     17.19542618	    -17.32658394	     -1.42642374	     64.48089500	     45.34413143	      0.00000000	      0.00000000	      8.02330960	     -8.33456856	      0.70756805	     31.09038369	     45.82035733	      0.00000000	      0.00000000
     10.40535714	     -3.86239601	     -6.99548458	      4.46305647	      1.00023945	      0.92969928	      0.49927559	      8.29583212	      5.85384491	    -15.63321871	     12.39373790	     12.39373790	      9.95883307	     -0.11179383	     -4.28642192	     36.80064165	    -12.76723632	      4.11907183	     51.89385775	     51.89385775	     10.96874819	    -19.20662263	     18.66911327	    -12.38026199	      6.83738200	      3.40120689	     19.24832109	    -17.93519653	     -1.13180004	     67.32434671	     45.25114022	      0.00000000	      0.00000000	      7.92091864	     -7.90049683	      1.17565275	     26.32145462	     45.81077431	      0.00000000	      0.00000000
     10.41642857	     -3.90569356	     -6.82557250	      4.73277964	      0.99941981	      0.92950389	      0.49868934	      7.71944747	      5.70531190	    -15.72379192	     12.16765586	     12.16765586	     10.31048706	     -0.06998505	     -4.43484775	     37.07264263	    -12.02043550	      4.34671913	     48.55123192	     48.55123192	     10.41891743	    -19.02075463	     17.45806863	    -12.41817161	      6.63264417	      3.42711314	     21.44640765	    -18.09650832	     -1.57694212	     69.86558536	     45.19954848	      0.00000000	      0.00000000	      7.00793672	     -7.73014921	      1.34754800	     23.84769434	     45.81858272	      0.00000000	      0.00000000
     10.42750000	     -3.98536529	     -6.63092659	      4.96493187	      0.99863308	      0.92926391	      0.49796674	      7.18707155	      5.52111800	    -15.74687120	     11.96124706	     11.96124706	     10.67236439	     -0.08918017	     -4.53302249	     37.25212311	    -11.16687981	      4.74954725	     45.12447749	     45.12447749	     10.24208728	    -18.66572780	     17.41689084	    -12.41219275	      6.40635567	      3.30448932	     23.90370879	    -18.07790532	     -1.91916897	     71.64997075	     45.16452067	      0.00000000	      0.00000000	      5.55343931	     -7.70315331	      1.42825309	     22.76664266	     45.78716775	      0.00000000	      0.00000000
     10.43857143	     -4.06398272	     -6.58587631	      5.17051500	      0.99803516	      0.92883254	      0.49720987	      6.60305368	      5.47171879	    -16.08153570	     11.67507256	     11.67507256	     11.05382040	      0.44488762	     -4.72236363	     37.25254001	    -10.56127683	      5.13676878	     41.43837097	     41.43837097	      9.00669841	    -18.00771711	     13.92366887	    -12.37831311	      6.34009205	      3.32205382	     26.01861794	    -18.35971817	     -1.79432123	     74.55816916	     45.08665405	      0.00000000	      0.00000000	      4.38798101	     -7.59428858	      1.75718989	     20.99893350	     45.74725933	      0.00000000	      0.00000000
     10.44964286	     -4.15627908	     -6.51518715	      5.33754349	      0.99755019	      0.92840775	      0.49638761	      5.99983747	      5.42392784	    -16.21651299	     11.33846002	     11.33846002	     11.39877236	      0.72011825	     -4.78483744	     37.17756570	     -9.97907491	      5.48565146	     37.78907455	     37.78907455	      8.32838972	    -16.87524206	     11.73286160	    -12.33118035	      6.24700083	      3.32648095	     28.30274554	    -18.30742054	     -2.18561555	     76.73992129	     45.05443409	      0.00000000	      0.00000000	      2.78813689	     -7.60922063	      2.02202185	     20.49350988	     45.68632305	      0.00000000	      0.00000000
     10.46071429	     -4.24084408	     -6.42808164	      5.45800629	      0.99720112	      0.92795189	      0.49551383	      5.39129757	      5.35919759	    -16.26013670	     11.02779498	     11.02779498	     11.73986250	      0.91109418	     -4.87187917	     37.08580015	     -9.46896708	      5.69921386	     34.38782014	     34.38782014	      8.55414355	    -15.07049445	     11.57701273	    -12.26665792	      6.12540986	      3.36950235	     30.69936682	    -18.21540420	     -2.46002640	     78.45543246	     45.02115927	      0.00000000	      0.00000000	      1.26109561	     -7.60338566	      2.10303483	     19.91439947	     45.64287662	      0.00000000	      0.00000000
     10.47178571	     -4.48270303	     -6.48155593	      5.56090953	      0.99685067	      0.92711685	      0.49453791	      4.98159315	      5.41820323	    -16.35232558	     10.75636446	     10.75636446	     12.06601763	      1.07441313	     -4.97755263	     37.17727403	     -9.09852124	      5.93863171	     31.18239513	     31.18239513	      8.77863729	    -13.28160385	     11.64499756	    -11.96448747	      6.19613218	      3.74389021	     33.02184946	    -18.50242849	     -2.79413153	     79.77616403	     45.00076972	      0.00000000	      0.00000000	     -0.12861001	     -7.50205781	      2.12548601	     19.51514523	     45.60884964	      0.00000000	      0.00000000
     10.48285714	     -4.40771506	     -6.38609945	      5.62600566	      0.99705803	      0.92680589	      0.49361344	      4.00948670	      5.38655326	    -16.47880806	     10.16966555	     10.16966555	     12.40209436	      1.72627483	     -5.01645448	     36.74595701	     -8.83189151	      5.54372950	     28.07161781	     28.07161781	      9.00801034	    -11.05966587	     11.36283680	    -12.08060324	      6.02895478	      3.53066225	     35.26709363	    -17.96664531	     -2.87146107	     82.04270690	     44.94289039	      0.00000000	      0.00000000	     -1.99262358	     -7.61711932	      2.17128155	     19.37229475	     45.55176266	      0.00000000	      0.00000000
     10.49392857	     -4.63228405	     -6.56240477	      5.67632471	      0.99705307	      0.92571334	      0.49258100	      3.54758453	      5.58228808	    -16.59040600	      9.85773007	      9.85773007	     12.74418986	      2.00419749	     -5.10495969	     36.82612627	     -8.69821864	      5.45557083	     25.50438765	     25.50438765	      9.12343729	     -9.62413984	     11.48466007	    -11.74940681	      6.18103075	      3.94274198	     37.50802502	    -18.22684168	     -3.17346568	     83.32006906	     44.92298469	      0.00000000	      0.00000000	     -3.45300993	     -7.50712006	      2.17658787	     19.26964806	     45.51263183	      0.00000000	      0.00000000
     10.50500000	     -4.54214384	     -6.55281012	      5.73186521	      0.99765514	      0.92514397	      0.49139206	      2.47196910	      5.60960588	    -17.03939741	      9.18254600	      9.18254600	     13.22504094	      3.31905221	     -4.90045045	     36.39062691	     -8.57116243	      4.68020145	     23.13738975	     23.13738975	      9.00396130	     -7.95718208	     10.80419166	    -11.90640810	      6.19741500	      3.70477953	     39.58238643	    -17.75766942	     -2.99865751	     85.78704355	     44.86914232	      0.00000000	      0.00000000	     -6.31638597	     -7.86060674	      2.53228783	     22.07306594	     45.31484249	      0.00000000	      0.00000000
     10.51607143	     -4.60545988	     -6.58768705	      5.74165482	      0.99817013	      0.92419582	      0.49011100	      1.71929665	      5.68264512	    -17.00038014	      8.75106061	      8.75106061	     13.59476882	      3.59780570	     -4.87545499	     36.16883797	     -8.38772498	      4.14532397	     21.30253094	     21.30253094	      8.97882343	     -7.31100607	     11.16545517	    -11.74878951	      6.24317201	      3.83375610	     41.71242494	    -17.50907601	     -3.15978346	     87.00891892	     44.85017795	      0.00000000	      0.00000000	     -7.95308939	     -7.81309280	      2.76181026	     22.00340948	     45.23357221	      0.00000000	      0.00000000
     10.52714286	     -4.66242754	     -6.67021435	      5.74555622	      0.99887933	      0.92306325	      0.48877725	      0.96270207	      5.77225328	    -17.20086542	      8.37437017	      8.37437017	     14.14302627	      4.32903472	     -4.55455935	     36.03871969	     -8.27736925	      3.52597617	     20.09830088	     20.09830088	      8.93462196	     -7.05393491	     11.58962692	    -11.60248426	      6.31672187	      3.73836293	     43.90658566	    -17.10119955	     -3.03865708	     88.02604226	     44.85267066	      0.00000000	      0.00000000	    -10.44463043	     -8.04508095	      3.70100278	     24.09027857	     44.98667124	      0.00000000	      0.00000000
